<svg width="512" height="512" viewBox="0 0 512 512" xmlns="http://www.w3.org/2000/svg"><circle cx="256" cy="256" r="240" fill="#222" stroke="#fff" stroke-width="20"/><g transform="translate(256,256)"><path d="M0,-220 A220,220 0 0,1 190,-110 L0,0Z" fill="#facc15"/><path d="M190,-110 A220,220 0 0,1 190,110 L0,0Z" fill="#38bdf8"/><path d="M190,110 A220,220 0 0,1 0,220 L0,0Z" fill="#22c55e"/><path d="M0,220 A220,220 0 0,1 -190,110 L0,0Z" fill="#f97316"/><path d="M-190,110 A220,220 0 0,1 -190,-110 L0,0Z" fill="#ec4899"/><path d="M-190,-110 A220,220 0 0,1 0,-220 L0,0Z" fill="#a855f7"/></g></svg>